<svg width="40" height="40" viewBox="0 0 34 32" fill="none" xmlns="http://www.w3.org/2000/svg">
	<path d="M16.9214 7.97602L9.96369 4.99414L4.9939 8.96997L6.98181 16.9216L16.9214 26.3642L26.861 16.9216L28.8489 8.96997L23.8791 4.99414L16.9214 7.97602Z" fill="red"/>
	<g>
		<path d="M22.7361 4C20.4878 4 18.3299 5.04664 16.9215 6.70058C15.513 5.04664 13.3551 4 11.1068 4C7.12699 4 4 7.12699 4 11.1068C4 15.9911 8.3933 19.9709 15.0478 26.0182L16.9215 27.7109L18.7951 26.0052C25.4496 19.9709 29.8429 15.9911 29.8429 11.1068C29.8429 7.12699 26.7159 4 22.7361 4ZM17.0507 24.0929L16.9215 24.2221L16.7922 24.0929C10.6416 18.5237 6.58429 14.8411 6.58429 11.1068C6.58429 8.52251 8.52251 6.58429 11.1068 6.58429C13.0967 6.58429 15.0349 7.86352 15.7198 9.63376H18.1361C18.808 7.86352 20.7462 6.58429 22.7361 6.58429C25.3204 6.58429 27.2586 8.52251 27.2586 11.1068C27.2586 14.8411 23.2013 18.5237 17.0507 24.0929Z" fill="white"/>
	</g>
</svg>